<?xml version="1.0" encoding="utf-8"?>
<!-- Generator: Adobe Illustrator 27.0.0, SVG Export Plug-In . SVG Version: 6.00 Build 0)  -->
<svg version="1.1" id="Layer_1" xmlns="http://www.w3.org/2000/svg" xmlns:xlink="http://www.w3.org/1999/xlink" x="0px" y="0px"
	 viewBox="0 0 194 46" style="enable-background:new 0 0 194 46;" xml:space="preserve">
<style type="text/css">
	.st0{fill:#FFFFFF;}
</style>
<g>
	<g>
		<path class="st0" d="M176.5,19.7c0,0.1,0,0.2,0,0.3c0,0.3,0,0.6,0,0.8c0,0.2-0.1,0.3-0.3,0.3c-0.4,0-0.7,0-1.1,0
			c0.1,0.1,0.1,0.1,0.2,0.2c0.4,0.2,0.5,0.5,0.6,0.9c0,0.7,0,1.4-0.4,2.1c-0.3,0.6-0.9,0.9-1.6,1c-0.5,0.1-1.1,0.1-1.6-0.1
			c-0.2-0.1-0.4,0.2-0.4,0.5c-0.1,0.6,0.2,0.9,0.8,0.9c0.7,0,1.4,0,2.1,0.1c0.8,0.1,1.3,0.6,1.5,1.4c0.2,0.8,0.2,1.6-0.3,2.3
			c-0.4,0.6-0.9,0.9-1.6,1c-0.6,0.1-1.1,0.1-1.7,0.1c-0.8-0.1-1.4-0.3-1.9-1c-0.2-0.4-0.3-0.8-0.3-1.3c0-0.3,0.1-0.5,0.1-0.8
			c0.1-0.3,0.3-0.5,0.6-0.6c0.1,0,0.2-0.1,0.4-0.2c-0.7-0.3-0.9-0.8-0.9-1.5c0-0.7,0.4-1.1,1.1-1.3c-0.2-0.1-0.3-0.3-0.5-0.3
			c-0.3-0.2-0.4-0.5-0.5-0.8c-0.2-0.6-0.2-1.2-0.1-1.8c0.1-0.7,0.4-1.2,0.9-1.7c0.4-0.3,0.8-0.4,1.3-0.5c0.7-0.1,1.3,0,1.8,0.4
			c0.1,0,0.2,0,0.2,0C175.5,20.1,176,19.9,176.5,19.7z M175,29c0-0.2,0-0.4-0.1-0.6c-0.1-0.4-0.5-0.5-0.8-0.5c-0.6,0-1.1,0-1.7,0
			c-0.1,0-0.2,0.1-0.3,0.2c-0.4,0.4-0.4,1-0.3,1.5c0.1,0.4,0.4,0.8,0.7,0.8c0.4,0.1,0.7,0.1,1.1,0.1C174.4,30.3,175.1,30,175,29z
			 M174.5,22.7C174.5,22.7,174.5,22.7,174.5,22.7c0-0.3,0-0.7-0.1-1c-0.2-0.8-1-0.8-1.6-0.7c-0.3,0.1-0.6,0.3-0.6,0.7
			c-0.1,0.4-0.1,0.9-0.1,1.3c0,0.2,0,0.4,0,0.6c0.2,0.8,0.6,0.9,1.3,0.8c0.7,0,1-0.4,1.1-0.9C174.5,23.2,174.5,22.9,174.5,22.7z"/>
		<path class="st0" d="M134.9,42.5c-0.3,0-0.5,0-0.8,0c-0.1,0-0.1-0.1-0.2-0.1c-0.1-0.2-0.2-0.4-0.3-0.7c-0.1,0.1-0.3,0.3-0.3,0.4
			c-0.3,0.5-0.7,0.6-1.2,0.6c-1.1,0-1.8-0.5-2.1-1.5c-0.3-0.7-0.4-1.5-0.4-2.3c0-0.6,0-1.2,0-1.9c0.1-0.9,0.2-1.8,0.8-2.5
			c0.5-0.7,1.2-0.9,2-0.8c0.4,0,0.8,0.2,1.1,0.5c0,0,0.1,0,0.2,0.1c0-0.4,0-0.7,0-1c0-0.7,0-1.4,0-2.1c0-0.3,0.1-0.3,0.3-0.3
			c0.3,0,0.7,0,1,0C134.9,34.7,134.9,38.6,134.9,42.5z M133.6,38.2c0-0.8,0-1.6,0-2.4c0-0.5-0.2-0.7-0.6-0.9c-0.1,0-0.1,0-0.2-0.1
			c-0.6-0.1-1.2,0-1.5,0.7c-0.2,0.6-0.2,1.1-0.2,1.7c0,0.8,0,1.6,0,2.4c0,0.4,0.1,0.8,0.2,1.2c0.1,0.4,0.5,0.8,1,0.8
			c0.4,0,0.7-0.2,1.1-0.4c0.1-0.1,0.2-0.2,0.2-0.4C133.5,39.9,133.6,39.1,133.6,38.2z"/>
		<path class="st0" d="M171.9,6.7c0-1.2,0-2.3,0-3.5c0.5,0,0.9,0,1.3,0c0,3.9,0,7.7,0,11.6c-0.3,0-0.5,0-0.8,0
			c-0.1,0-0.1-0.1-0.2-0.1c-0.1-0.2-0.2-0.4-0.3-0.7c-0.1,0.2-0.3,0.3-0.4,0.5c-0.3,0.5-1,0.7-1.6,0.5c-0.3-0.1-0.6-0.2-0.9-0.3
			c-0.5-0.3-0.7-0.7-0.9-1.2c-0.4-1.2-0.5-2.4-0.4-3.6c0-0.9,0.2-1.8,0.6-2.7c0.6-1.3,2.2-1.6,3.2-0.6
			C171.8,6.6,171.8,6.6,171.9,6.7z M171.9,10.5C171.9,10.5,171.9,10.5,171.9,10.5c0-0.8,0-1.5,0-2.3c0-0.5-0.1-0.7-0.6-0.9
			c-0.1,0-0.1,0-0.2-0.1c-0.6-0.2-1.3,0-1.5,0.6c-0.1,0.3-0.2,0.7-0.2,1.1c0,0.8,0,1.6,0,2.4c0,0.6,0,1.1,0.2,1.7
			c0.3,0.9,1.1,1.2,1.9,0.7c0.3-0.2,0.5-0.4,0.5-0.9C171.9,12.1,171.9,11.3,171.9,10.5z"/>
		<path class="st0" d="M144.1,7.1c0.1-0.1,0.2-0.2,0.3-0.4c0.2-0.4,0.6-0.6,1.1-0.7c0.5-0.1,0.9-0.1,1.3,0.1c0.4,0.2,0.8,0.6,0.9,1
			c0.1,0.5,0.2,0.9,0.2,1.4c0,1.9,0,3.9,0,5.8c0,0.4,0,0.4-0.4,0.4c-0.3,0-0.5,0-0.8,0c-0.2,0-0.3-0.1-0.3-0.3c0-1.6,0-3.3,0-4.9
			c0-0.5,0-1.1,0-1.6c0-0.4-0.2-0.7-0.6-0.7c-0.6-0.1-1.1,0.1-1.6,0.4c0,0-0.1,0.1-0.1,0.2c0,2.2,0,4.4,0,6.6c0,0.3-0.1,0.4-0.3,0.3
			c-0.3,0-0.5,0-0.8,0c-0.3,0-0.3,0-0.3-0.4c0-2,0-3.9,0-5.9c0-0.7,0-1.4,0-2.1c0-0.2,0.1-0.2,0.2-0.3c0.5-0.1,0.8,0,0.9,0.6
			C143.9,6.9,144,7,144.1,7.1z"/>
		<path class="st0" d="M154.4,39.6c0,0.7-0.1,1.3-0.5,1.9c-0.4,0.6-0.9,1-1.6,1.1c-0.4,0.1-0.8,0.1-1.2,0.1c-0.7,0-1.4-0.2-2-0.6
			c-0.1,0-0.1-0.2-0.1-0.4c0-0.2,0.1-0.4,0.2-0.6c0-0.2,0.1-0.2,0.3-0.1c0.4,0.1,0.8,0.3,1.2,0.4c0.5,0.1,1.1,0.1,1.6-0.1
			c0.3-0.1,0.6-0.4,0.6-0.8c0-0.5,0.1-1,0-1.6c-0.1-0.6-0.6-0.9-1.1-1.1c-0.5-0.2-1-0.4-1.5-0.7c-0.6-0.3-0.9-0.9-1.1-1.5
			c-0.2-0.8-0.2-1.5,0-2.3c0.2-0.8,0.7-1.4,1.5-1.6c1-0.3,2.1-0.2,3.1,0.2c0.1,0.1,0.2,0.1,0.2,0.3c-0.1,0.2-0.1,0.5-0.1,0.8
			c0,0.2-0.2,0.2-0.3,0.1c-0.6-0.2-1.2-0.3-1.8-0.3c-0.9,0-1.2,0.5-1.2,1.2c0,0.3,0,0.7,0.1,1c0.1,0.3,0.3,0.5,0.5,0.7
			c0.5,0.3,1,0.5,1.5,0.7c0.8,0.3,1.4,0.8,1.6,1.7C154.3,38.7,154.3,39.1,154.4,39.6z"/>
		<path class="st0" d="M159.5,33.8c0.4,0,0.8,0,1.2,0c0.1,0,0.1,0.1,0.1,0.2c0,0,0,0.1,0,0.1c0,2.7,0,5.4,0,8.1c0,0.1,0,0.2,0,0.3
			c-0.3,0-0.5,0-0.8,0c-0.1,0-0.1-0.1-0.2-0.2c-0.1-0.2-0.2-0.4-0.3-0.7c-0.1,0.1-0.2,0.2-0.3,0.3c-0.2,0.4-0.6,0.6-1.1,0.7
			c-0.5,0.1-0.9,0.1-1.4-0.1c-0.5-0.2-0.8-0.6-0.9-1c-0.1-0.6-0.2-1.2-0.2-1.8c0-1.8,0-3.6,0-5.5c0-0.3,0-0.3,0.4-0.4
			c0.3,0,0.5,0,0.8,0c0.2,0,0.3,0.1,0.3,0.3c0,1.5,0,3,0,4.5c0,0.6,0,1.3,0,1.9c0,0.8,0.5,1,1.1,0.9c0.3,0,0.7-0.2,1-0.4
			c0.2-0.1,0.2-0.2,0.2-0.4c0-2.2,0-4.4,0-6.6C159.5,34.1,159.5,34,159.5,33.8z"/>
		<path class="st0" d="M164,10.5c-0.1,0.6-0.1,1.2-0.2,1.8c-0.2,0.9-0.5,1.7-1.2,2.2c-0.5,0.4-1.2,0.5-1.8,0.4
			c-1.1-0.1-1.7-0.8-2.1-1.8c-0.2-0.5-0.3-1.1-0.3-1.6c-0.1-0.7,0-1.4,0-2.1c0-0.8,0.2-1.6,0.7-2.3c0.6-0.9,1.5-1.3,2.5-1.1
			c1.1,0.2,1.7,0.9,2,2C163.9,8.8,164,9.6,164,10.5z M162.5,10.5C162.5,10.5,162.5,10.5,162.5,10.5c0-0.4,0-0.7,0-1.1
			c0-0.5-0.1-0.9-0.2-1.4c-0.3-0.8-0.9-1-1.6-0.7c-0.6,0.2-0.7,0.9-0.8,1.4c-0.1,0.8-0.1,1.6-0.1,2.4c0,0.6,0,1.3,0.2,1.9
			c0.2,0.5,0.6,0.8,1.1,0.9c0.4,0,0.9-0.2,1.1-0.7c0.1-0.4,0.3-0.8,0.3-1.2C162.5,11.5,162.5,11,162.5,10.5z"/>
		<path class="st0" d="M152.5,28.6c-0.4,0-0.8,0-1.2,0c-0.1,0-0.2-0.1-0.2-0.2c0-0.2,0-0.3,0-0.5c0-2,0-4,0-5.9
			c0-0.9-0.6-1.1-1.3-0.9c-0.3,0.1-0.6,0.2-0.8,0.3c-0.2,0.1-0.2,0.2-0.2,0.4c0,2.2,0,4.4,0,6.6c0,0.1,0,0.2,0,0.3
			c-0.4,0-0.9,0-1.3,0c0,0-0.1-0.1-0.1-0.1c0-0.1,0-0.1,0-0.2c0-2.6,0-5.3,0-7.9c0-0.4,0-0.3,0.4-0.4c0.4,0,0.7,0.1,0.8,0.5
			c0,0.1,0.1,0.3,0.2,0.4c0.2-0.2,0.3-0.4,0.5-0.6c0.2-0.2,0.4-0.3,0.6-0.4c0.5-0.2,1.1-0.2,1.6,0c0.6,0.2,0.9,0.7,1,1.3
			c0.1,0.5,0.1,1,0.1,1.5c0,1.9,0,3.7,0,5.6C152.5,28.4,152.5,28.5,152.5,28.6z"/>
		<path class="st0" d="M159.5,24.3c0,0.6-0.1,1.2-0.2,1.8c-0.1,0.7-0.3,1.4-0.9,2c-0.6,0.6-1.4,0.9-2.2,0.7
			c-1.3-0.2-1.8-1.2-2.1-2.3c-0.1-0.6-0.2-1.2-0.2-1.8c0-0.7,0-1.4,0.1-2.2c0.1-0.7,0.3-1.4,0.8-1.9c0.4-0.4,0.9-0.7,1.5-0.8
			c1.3-0.2,2.3,0.5,2.7,1.7C159.4,22.4,159.5,23.3,159.5,24.3z M158.1,24.3C158.1,24.3,158.1,24.3,158.1,24.3c0-0.7,0-1.4-0.1-2.1
			c-0.1-0.7-0.5-1.3-1.4-1.2c-0.5,0-0.8,0.4-1,0.8c-0.2,0.6-0.2,1.2-0.2,1.8c0,0.7,0,1.4,0,2.1c0,0.4,0.1,0.8,0.2,1.2
			c0.1,0.5,0.5,0.8,1,0.8c0.5,0,1-0.2,1.2-0.7c0.1-0.4,0.2-0.8,0.3-1.2C158.1,25.3,158.1,24.8,158.1,24.3z"/>
		<path class="st0" d="M163.9,24.3c0.1-0.7,0.1-1.4,0.3-2c0.1-0.7,0.4-1.3,0.9-1.8c0.6-0.6,1.3-0.7,2.1-0.6c1,0.2,1.6,0.8,2,1.7
			c0.3,0.7,0.4,1.5,0.4,2.3c0,0.8,0,1.6-0.2,2.4c-0.2,0.9-0.5,1.7-1.3,2.1c-0.5,0.3-1.1,0.4-1.8,0.3c-1.2-0.2-1.8-1-2.1-2.1
			C164,25.9,163.9,25.1,163.9,24.3z M165.3,24.3c0.1,0.7,0.1,1.3,0.2,2c0.1,0.4,0.2,0.7,0.4,1c0.2,0.4,0.7,0.4,1.1,0.4
			c0.5-0.1,0.8-0.5,0.9-1c0.1-0.6,0.2-1.2,0.2-1.8c0-1,0-1.9-0.2-2.9c-0.2-0.8-1-1.2-1.7-0.8c-0.5,0.2-0.7,0.7-0.7,1.2
			C165.4,23,165.4,23.6,165.3,24.3z"/>
		<path class="st0" d="M184.1,27.9c-0.1,0.2-0.3,0.3-0.4,0.5c-0.1,0.2-0.4,0.3-0.6,0.4c-0.5,0.1-1.1,0.1-1.6-0.1
			c-0.5-0.2-0.9-0.6-1-1.2c-0.2-0.7-0.2-1.5,0-2.2c0.2-0.7,0.6-1.1,1.3-1.4c0.6-0.2,1.2-0.3,1.8-0.3c0.3,0,0.3,0,0.3-0.4
			c0-0.4,0-0.8,0-1.2c0-0.6-0.3-0.9-0.9-0.9c-0.6,0-1.2,0.1-1.8,0.3c-0.3,0.1-0.4,0.1-0.4-0.2c0-0.2,0-0.3-0.1-0.5
			c-0.1-0.2,0-0.3,0.2-0.4c0.6-0.3,1.1-0.4,1.7-0.5c0.6-0.1,1.1,0,1.6,0.2c0.5,0.2,0.8,0.7,0.9,1.2c0.2,0.6,0.2,1.2,0.2,1.9
			c0,1.4,0,2.8,0,4.1c0,0.4,0.1,0.4,0.4,0.4c0.2,0,0.3,0.1,0.3,0.3c0,0.5,0,0.7-0.6,0.7c-0.3,0-0.5,0-0.8,0c-0.1,0-0.2-0.1-0.2-0.2
			C184.4,28.3,184.3,28.1,184.1,27.9z M183.9,25.9C184,25.9,184,25.9,183.9,25.9c0-0.4,0-0.8,0-1.2c0-0.2-0.1-0.3-0.2-0.2
			c-0.4,0.1-0.7,0.1-1.1,0.2c-0.5,0.1-0.8,0.4-0.9,1c0,0.5,0,1,0,1.4c0,0.3,0.3,0.7,0.6,0.7c0.3,0,0.6,0,1,0
			c0.4-0.1,0.6-0.4,0.6-0.8C183.9,26.6,183.9,26.2,183.9,25.9z"/>
		<path class="st0" d="M187.8,41c0.1,0.3,0.2,0.6,0.2,0.9c0,0.2,0,0.3-0.2,0.4c-0.7,0.4-1.5,0.5-2.3,0.4c-1.1-0.1-1.8-0.8-2.2-1.9
			c-0.2-0.6-0.3-1.2-0.3-1.8c-0.1-0.9,0-1.9,0.1-2.8c0.2-1,0.5-1.9,1.6-2.3c0.9-0.4,2.4-0.3,3,0.7c0.2,0.4,0.4,0.8,0.5,1.3
			c0.1,0.8,0.1,1.6,0.2,2.4c0,0.3-0.1,0.3-0.3,0.3c-1.1,0-2.2,0-3.3,0c-0.2,0-0.3,0-0.3,0.3c0,0.6,0,1.2,0.3,1.8
			c0.2,0.4,0.6,0.7,1,0.7C186.4,41.5,187.1,41.3,187.8,41z M186.9,37.6c0-0.3,0-0.6,0-0.8c0-0.4,0-0.7-0.1-1.1
			c-0.1-0.3-0.2-0.5-0.4-0.7c-0.6-0.4-1.5-0.1-1.7,0.6c-0.2,0.6-0.2,1.1-0.2,1.7c0,0.3,0.1,0.3,0.3,0.3c0.4,0,0.8,0,1.2,0
			C186.2,37.6,186.6,37.6,186.9,37.6z"/>
		<path class="st0" d="M171.9,41c0.1,0.3,0.2,0.6,0.2,0.9c0,0.1-0.1,0.2-0.1,0.3c-0.8,0.4-1.7,0.6-2.7,0.4c-1.2-0.2-1.8-1.1-2.1-2.2
			c-0.2-0.9-0.3-1.7-0.2-2.6c0-0.8,0.1-1.7,0.4-2.5c0.3-0.8,0.8-1.3,1.6-1.5c0.8-0.2,1.8-0.2,2.4,0.6c0.4,0.4,0.6,1,0.7,1.6
			c0.2,0.8,0.1,1.6,0.2,2.4c0,0.2-0.1,0.3-0.3,0.3c-1.1,0-2.2,0-3.3,0c-0.2,0-0.3,0.1-0.3,0.3c0,0.6,0,1.2,0.3,1.8
			c0.2,0.5,0.5,0.7,1,0.8C170.5,41.5,171.2,41.3,171.9,41z M168.5,37.5C168.5,37.5,168.5,37.5,168.5,37.5c0.8,0.1,1.6,0.1,2.4,0.1
			c0,0,0.1-0.1,0.1-0.2c0-0.6-0.1-1.1-0.1-1.7c-0.1-0.5-0.5-0.9-0.9-0.9c-0.6-0.1-1,0.2-1.2,0.7C168.5,36.2,168.5,36.8,168.5,37.5z"
			/>
		<path class="st0" d="M138.5,24.8c-0.6,0-1.2,0-1.7,0c-0.1,0-0.2,0-0.2,0.2c0,0.7,0,1.3,0.3,2c0.2,0.4,0.5,0.7,1,0.7
			c0.7,0.1,1.3-0.1,2-0.4c0.2-0.1,0.2,0,0.2,0.1c0,0.2,0.1,0.4,0.1,0.6c0.1,0.2,0,0.3-0.1,0.3c-0.3,0.1-0.7,0.3-1,0.4
			c-0.4,0.1-0.7,0.1-1.1,0.1c-1,0-1.8-0.4-2.2-1.3c-0.2-0.5-0.4-1.1-0.5-1.6c-0.1-0.7-0.1-1.4-0.1-2.1c0-0.9,0.1-1.8,0.6-2.6
			c0.4-0.8,1-1.2,1.8-1.3c1.4-0.2,2.3,0.6,2.6,1.7c0.2,0.6,0.3,1.2,0.3,1.8c0,0.4,0,0.8,0,1.2c0,0.2-0.1,0.2-0.2,0.2
			C139.7,24.8,139.1,24.8,138.5,24.8C138.5,24.8,138.5,24.8,138.5,24.8z M137.9,23.8c0.4,0,0.7,0,1.1,0c0.1,0,0.2,0,0.2-0.2
			c0-0.6,0-1.3-0.2-1.9c-0.2-0.4-0.4-0.7-0.8-0.7c-0.5-0.1-0.9,0.1-1.1,0.5c-0.3,0.7-0.4,1.4-0.4,2.1c0,0,0.1,0.1,0.2,0.1
			C137.1,23.8,137.5,23.8,137.9,23.8z"/>
		<path class="st0" d="M137.5,10.9c0.1,0.7,0,1.4,0.2,2c0.2,0.5,0.6,0.8,1.2,0.8c0.6,0,1.2-0.1,1.8-0.4c0.2-0.1,0.3,0,0.3,0.1
			c0,0.2,0.1,0.4,0.1,0.6c0,0.2,0,0.3-0.2,0.4c-0.7,0.3-1.3,0.5-2,0.5c-1.2,0-2.1-0.8-2.5-1.9c-0.3-1.1-0.3-2.2-0.3-3.3
			c0-0.9,0.2-1.8,0.6-2.6c0.3-0.6,0.8-1,1.5-1.1c0.5-0.1,1-0.1,1.5,0.1c0.6,0.2,1,0.7,1.2,1.3c0.4,1,0.4,2.1,0.4,3.2
			c0,0.2-0.1,0.2-0.3,0.2c-1.1,0-2.2,0-3.3,0C137.7,10.9,137.6,10.9,137.5,10.9z M140.1,9.9c-0.1-0.7-0.1-1.3-0.2-2
			c-0.2-0.7-0.8-1-1.5-0.7c-0.5,0.2-0.7,0.6-0.8,1.1c-0.1,0.4-0.1,0.9-0.1,1.3c0,0.3,0.1,0.3,0.3,0.3c0.7,0,1.3,0,2,0
			C139.8,9.9,139.9,9.9,140.1,9.9z"/>
		<path class="st0" d="M139.8,38.6c-0.6,0-1.1,0-1.7,0c-0.2,0-0.3,0.1-0.3,0.2c0,0.6,0,1.2,0.2,1.7c0.2,0.5,0.5,0.8,1.1,0.9
			c0.7,0.1,1.4-0.1,2-0.4c0.2-0.1,0.2,0,0.2,0.1c0,0.2,0.1,0.5,0.1,0.7c0,0.1,0,0.2-0.1,0.3c-0.3,0.1-0.7,0.3-1,0.4
			c-0.4,0.1-0.8,0.1-1.2,0.1c-1.1-0.1-1.9-0.6-2.3-1.7c-0.5-1.3-0.5-2.7-0.3-4.1c0.1-0.6,0.2-1.3,0.5-1.8c0.6-1.1,1.5-1.4,2.6-1.3
			c1.2,0.1,1.7,1.1,2,2c0.2,0.9,0.2,1.7,0.2,2.6c0,0.2-0.1,0.3-0.3,0.3C140.9,38.6,140.3,38.6,139.8,38.6
			C139.8,38.6,139.8,38.6,139.8,38.6z M139.1,37.6c0.4,0,0.7,0,1.1,0c0.1,0,0.2,0,0.2-0.2c0-0.6,0-1.2-0.2-1.8
			c-0.2-0.6-0.5-0.7-0.9-0.8c-0.5,0-0.9,0.2-1.1,0.7c-0.3,0.6-0.3,1.3-0.3,2c0,0.2,0.1,0.2,0.2,0.2
			C138.4,37.6,138.7,37.6,139.1,37.6z"/>
		<path class="st0" d="M180,10.9c-1.3,0-2.6,0-3.9,0c0,0.4,0,0.7,0.1,1.1c0.1,0.4,0.1,0.7,0.3,1c0.2,0.5,0.5,0.7,1,0.7
			c0.7,0.1,1.3-0.1,1.9-0.4c0.1,0,0.1,0,0.2-0.1c0.1,0.3,0.2,0.6,0.2,0.9c0,0.1-0.1,0.2-0.2,0.3c-0.5,0.3-1,0.4-1.6,0.5
			c-0.8,0.1-1.6,0-2.2-0.6c-0.5-0.4-0.7-0.9-0.9-1.5c-0.3-1.1-0.3-2.1-0.2-3.2c0.1-0.9,0.2-1.8,0.7-2.5c0.4-0.6,0.8-0.9,1.5-1.1
			c0.6-0.1,1.1-0.1,1.7,0.2c0.6,0.3,0.9,0.8,1.1,1.3c0.3,0.9,0.3,1.8,0.3,2.7C180,10.5,180,10.7,180,10.9z M178.7,9.9
			c-0.1-0.7-0.1-1.3-0.2-1.9c-0.1-0.4-0.4-0.9-0.8-0.9c-0.5-0.1-1,0.1-1.2,0.5c-0.3,0.6-0.3,1.2-0.4,1.8c0,0.5,0,0.4,0.4,0.4
			c0.1,0,0.3,0,0.4,0C177.5,9.9,178.1,9.9,178.7,9.9z"/>
		<path class="st0" d="M135,13.2c0.1,0.3,0.2,0.6,0.3,1c0,0.1-0.1,0.2-0.2,0.3c-0.5,0.3-1.1,0.4-1.7,0.5c-1,0.1-1.9-0.1-2.7-0.9
			c-0.4-0.4-0.7-1-0.8-1.5c-0.3-0.9-0.4-1.9-0.4-2.8c0-0.7,0-1.3,0.1-2c0.1-0.9,0.3-1.7,0.8-2.5c0.5-0.8,1.2-1.2,2.1-1.3
			c0.9-0.1,1.7,0.1,2.5,0.4c0.1,0.1,0.2,0.1,0.1,0.3c-0.1,0.3-0.1,0.6-0.1,0.8c0,0.2-0.1,0.2-0.2,0.2c-0.6-0.2-1.2-0.4-1.9-0.4
			c-0.7,0-1.2,0.4-1.4,1c-0.2,0.6-0.3,1.2-0.3,1.8c0,0.6-0.1,1.2,0,1.8c0,0.7,0.1,1.4,0.2,2.1c0.1,0.5,0.2,1,0.6,1.3
			c0.4,0.4,1,0.5,1.5,0.3C134,13.6,134.5,13.4,135,13.2z"/>
		<path class="st0" d="M129.4,19.2c0-0.4,0-0.8,0-1.2c0.1,0,0.2,0,0.3,0c1.7,0,3.4,0,5.2,0c0.2,0,0.3,0.1,0.3,0.3c0,0.2,0,0.4,0,0.6
			c0,0.4,0,0.4-0.4,0.4c-0.5,0-1,0-1.5,0c-0.1,0-0.2,0-0.3,0c0,3.1,0,6.3,0,9.4c-0.5,0-0.9,0-1.4,0c0,0-0.1-0.1-0.1-0.2
			c0-0.1,0-0.3,0-0.4c0-2.9,0-5.7,0-8.6c0-0.2-0.1-0.3-0.3-0.3C130.6,19.2,130,19.2,129.4,19.2z"/>
		<path class="st0" d="M187,27.3c0.4,0.1,0.7,0.2,1.1,0.3c0.4,0.1,0.9,0.1,1.3-0.1c0.3-0.1,0.5-0.4,0.5-0.7c0-0.3,0-0.6,0-0.9
			c0-0.5-0.3-0.7-0.7-0.9c-0.4-0.2-0.9-0.4-1.3-0.6c-0.5-0.3-0.8-0.8-1-1.3c-0.1-0.6-0.1-1.2,0-1.8c0.2-0.6,0.5-1.1,1.2-1.3
			c0.9-0.3,1.8-0.2,2.7,0.2c0.2,0.1,0.2,0.2,0.2,0.3c-0.1,0.2-0.1,0.4-0.1,0.6c0,0.2-0.1,0.2-0.3,0.1c-0.5-0.2-1-0.3-1.5-0.3
			c-0.3,0-0.6,0.2-0.8,0.5c-0.3,0.7,0,1.5,0.7,1.8c0.5,0.2,1,0.4,1.5,0.7c0.5,0.3,0.8,0.9,0.8,1.5c0,0.2,0.1,0.5,0.1,0.7
			c-0.1,0.6-0.2,1.2-0.6,1.7c-0.4,0.5-0.9,0.7-1.5,0.7c-0.7,0.1-1.4,0-2.1-0.3c-0.3-0.1-0.3-0.2-0.3-0.5
			C186.9,27.8,187,27.6,187,27.3z"/>
		<path class="st0" d="M177.3,35.2c-0.6-0.2-1.1-0.4-1.7-0.3c-0.3,0-0.7,0.1-0.8,0.5c-0.4,0.7-0.1,1.6,0.7,1.9
			c0.4,0.2,0.8,0.3,1.2,0.5c0.8,0.4,1.2,1.2,1.2,2.1c0,0.5,0,1-0.2,1.5c-0.3,0.6-0.7,1-1.4,1.2c-0.9,0.2-1.7,0.1-2.5-0.2
			c-0.3-0.1-0.4-0.3-0.3-0.6c0-0.1,0.1-0.2,0.1-0.3c0-0.3,0.1-0.3,0.3-0.2c0.5,0.2,1.1,0.3,1.7,0.3c0.6,0,0.9-0.4,1-1
			c0-0.3,0-0.6,0-0.9c-0.1-0.5-0.5-0.7-0.9-0.8c-0.4-0.2-0.9-0.4-1.3-0.6c-0.6-0.3-0.8-0.9-0.8-1.5c0-0.3,0-0.7,0-1.1
			c0-0.8,0.6-1.6,1.4-1.8c0.9-0.2,1.7-0.2,2.6,0.2c0.1,0,0.2,0.2,0.2,0.2C177.4,34.6,177.3,34.9,177.3,35.2z"/>
		<path class="st0" d="M179.3,35c-0.2,0-0.4,0-0.6,0c-0.1,0-0.2-0.1-0.2-0.2c0-0.2,0-0.5,0-0.7c0-0.1,0.1-0.2,0.2-0.2
			c0.2,0,0.3,0,0.5,0c0.1,0,0.2,0,0.3-0.2c0.1-0.5,0.3-1,0.4-1.6c0-0.1,0.1-0.3,0.1-0.4c0,0,0,0,0,0c0.7-0.1,0.7-0.1,0.7,0.6
			c0,0.5,0,1,0,1.6c0.4,0,0.8,0,1.2,0c0.2,0,0.3,0.1,0.3,0.3c0,0.2,0,0.3,0,0.5c0,0.4,0,0.4-0.4,0.4c-0.3,0-0.6,0-0.9,0
			c-0.1,0-0.2,0-0.2,0.2c0,2,0,3.9,0,5.9c0,0.3,0.1,0.5,0.5,0.5c0.3,0,0.6,0,0.8,0c0.2,0,0.3,0.1,0.3,0.2c0,0.1,0,0.1,0,0.1
			c0.1,0.3,0,0.5-0.3,0.5c-0.3,0.1-0.7,0.2-1,0.2c-0.9,0-1.5-0.5-1.6-1.5c0-0.5,0-0.9,0-1.4c0-1.5,0-3,0-4.5
			C179.3,35.2,179.3,35.1,179.3,35z"/>
		<path class="st0" d="M149.7,7.3c-0.2,0-0.4,0-0.6,0c-0.1,0-0.2-0.1-0.2-0.2c0-0.3,0-0.6,0-0.9c0.3,0,0.6,0,0.9,0
			c0.2-0.5,0.3-1.1,0.4-1.6c0-0.2,0.1-0.3,0.1-0.5c0-0.1,0.1-0.1,0.2-0.2c0.5-0.1,0.6,0,0.6,0.5c0,0.5,0,1,0,1.5
			c0,0.2,0.1,0.3,0.3,0.3c0.4,0,0.8,0,1.2,0c0,0.3,0,0.7,0,1c0,0-0.1,0.1-0.2,0.1c-0.4,0-0.7,0-1.1,0c-0.2,0-0.2,0.1-0.2,0.2
			c0,1.9,0,3.9,0,5.8c0,0.4,0.1,0.6,0.6,0.6c0.3,0,0.6,0,1,0c0,0.2,0.1,0.5,0.1,0.7c0,0.1-0.1,0.1-0.1,0.2c-0.7,0.3-1.4,0.4-2.1,0.1
			c-0.4-0.2-0.7-0.5-0.7-1c-0.1-0.5-0.1-1-0.1-1.6c0-1.6,0-3.1,0-4.7C149.7,7.5,149.7,7.4,149.7,7.3z"/>
		<path class="st0" d="M145.9,21.4c-0.4-0.1-0.7-0.2-1.1-0.3c-0.5-0.1-1-0.1-1.4,0.4c-0.2,0.2-0.3,0.5-0.4,0.8
			c-0.1,0.6-0.1,1.1-0.1,1.7c0,0.6,0,1.1,0,1.7c0,0.4,0.1,0.9,0.3,1.3c0.2,0.6,0.8,0.8,1.4,0.7c0.4-0.1,0.9-0.3,1.3-0.4
			c0.1,0.3,0.2,0.6,0.2,1c0,0-0.1,0.1-0.1,0.1c-0.3,0.1-0.5,0.3-0.8,0.4c-0.6,0.2-1.2,0.2-1.8,0c-0.6-0.2-1.1-0.7-1.3-1.3
			c-0.4-0.8-0.5-1.7-0.5-2.6c0-0.9,0-1.8,0.2-2.6c0.2-0.9,0.6-1.7,1.5-2.1c0.5-0.2,1-0.3,1.5-0.2c0.4,0.1,0.8,0.2,1.2,0.4
			c0.2,0.1,0.2,0.2,0.2,0.3C146,20.8,146,21.1,145.9,21.4z"/>
		<path class="st0" d="M144.6,42.4c-0.5,0-1,0-1.4,0c0-0.1,0-0.2,0-0.3c0-3.7,0-7.3,0-11c0-0.4,0-0.4,0.4-0.4c0.3,0,0.6,0,0.9,0
			c0.2,0,0.2,0.1,0.2,0.2c0,0,0,0.1,0,0.1c0,3.7,0,7.3,0,11C144.6,42.2,144.6,42.3,144.6,42.4z"/>
		<path class="st0" d="M161,28.6c0-3.9,0-7.8,0-11.6c0.5,0,0.9,0,1.4,0c0,0.1,0,0.2,0,0.3c0,3.7,0,7.4,0,11c0,0.2-0.1,0.3-0.3,0.3
			C161.8,28.6,161.4,28.6,161,28.6z"/>
		<path class="st0" d="M164.1,42.4c-0.5,0-0.9,0-1.4,0c0-0.1,0-0.2,0-0.3c0-2.7,0-5.3,0-8c0-0.3,0-0.3,0.3-0.3c0.6,0,0.6,0,0.8,0.5
			c0.1,0.2,0.1,0.3,0.2,0.5c0.2-0.2,0.4-0.4,0.5-0.7c0.2-0.3,0.5-0.4,0.7-0.4c0.4,0,0.8,0,1.2,0.1c0.2,0,0.2,0.2,0.2,0.3
			c-0.1,0.3-0.1,0.6-0.2,0.9c0,0.2-0.1,0.2-0.2,0.1c-0.7-0.2-1.3-0.1-1.9,0.3c-0.1,0.1-0.1,0.2-0.1,0.3c0,2.1,0,4.2,0,6.3
			C164.1,42.2,164.1,42.3,164.1,42.4z"/>
		<path class="st0" d="M154,6.2c0.3,0,0.5,0,0.7,0c0.1,0,0.2,0.1,0.2,0.2c0.1,0.2,0.2,0.5,0.3,0.8c0.2-0.2,0.3-0.3,0.4-0.5
			c0.2-0.3,0.3-0.5,0.7-0.6c0.5-0.1,0.9-0.2,1.4,0.1c0.1,0,0.1,0.1,0.1,0.2c-0.1,0.4-0.1,0.7-0.2,1.1c-0.3,0-0.6-0.1-0.9-0.1
			c-0.4,0-0.7,0.2-1,0.3c-0.2,0.1-0.3,0.2-0.3,0.5c0,2.1,0,4.2,0,6.3c0,0.1,0,0.2,0,0.3c-0.5,0-0.9,0-1.4,0
			C154,11.9,154,9.1,154,6.2z"/>
		<path class="st0" d="M178.9,28.6c-0.4,0-0.9,0-1.3,0c0-2.9,0-5.7,0-8.6c0.4,0,0.9,0,1.3,0C178.9,22.9,178.9,25.7,178.9,28.6z"/>
		<path class="st0" d="M180.1,16.5c-0.2,0.5-0.5,0.9-0.7,1.2c-0.2,0.4-0.5,0.8-0.7,1.2c-0.1,0.2-0.2,0.3-0.4,0.2c0,0-0.1,0-0.1,0
			c-0.5,0-0.5,0-0.4-0.5c0.2-0.6,0.3-1.2,0.5-1.9c0.1-0.2,0.1-0.4,0.4-0.4C179.1,16.5,179.6,16.5,180.1,16.5z"/>
		<path class="st0" d="M11.5,35c-1.7-1.9-1.6-4.7-1.6-4.8l0-15.3c0-2,0.6-3.6,1.8-4.7c1.9-1.8,4.5-1.7,4.6-1.7l20.5,0
			c6.4,0,7.9-4.9,8.3-6.6c-9.3,0-18.5,0-27.8,0c-1.3,0-2.6,0.1-3.9,0.5c-1,0.3-1.9,0.7-2.7,1.1c-0.8,0.5-1.7,1-2.3,1.7
			C7.8,5.9,7.2,6.5,6.7,7.2c-0.7,0.9-1.2,1.9-1.6,3c-0.3,0.8-0.5,1.6-0.7,2.4c-0.1,0.4-0.1,0.7-0.2,1.1c0,6.2,0,12.3,0,18.5
			c0.1,0.4,0.1,0.7,0.2,1c0.1,0.6,0.3,1.2,0.5,1.8c0.4,1.2,0.9,2.2,1.6,3.2c0.8,1.1,1.7,2.1,2.8,3c1,0.7,2,1.3,3.1,1.7
			c0.8,0.3,1.5,0.5,2.3,0.7c0.9,0.1,1.7,0.2,2.6,0.2c7.6,0,15.2,0,22.9,0c0.5,0,1-0.1,1.5-0.2c1.3-0.4,2.3-1.2,3-2.4
			c0.5-0.8,0.8-1.8,0.8-2.8c0-0.6,0-1.3,0-1.9H15.4C13.7,36.5,12.4,36,11.5,35z"/>
		<path class="st0" d="M36.8,9.4H16.3c0,0-2.4-0.1-4,1.4c-1,0.9-1.5,2.3-1.5,4.1v15.3c0,0.1-0.1,2.6,1.3,4.2
			c0.8,0.9,1.9,1.3,3.3,1.4l30.1,0c0-0.3,0-0.7,0-1c0-0.8-0.3-1.5-0.7-2.2c-0.5-0.9-1.2-1.6-2.1-2c-0.7-0.4-1.4-0.6-2.3-0.6
			c-4.9,0-9.8,0-14.6,0c-0.8,0-1.5,0-2.2-0.2c-0.8-0.2-1.5-0.4-2.1-0.8c-0.8-0.5-1.4-1-2-1.8c-0.8-1.1-1.3-2.3-1.4-3.7
			c0-0.5-0.1-1,0-1.5c0.1-0.6,0.3-1.2,0.5-1.8c0.3-0.9,0.9-1.7,1.6-2.3c0.7-0.6,1.4-1.1,2.3-1.5c0.7-0.3,1.4-0.5,2.1-0.5
			c1.8,0,3.6,0,5.4,0c1.5,0,3,0.1,4.5-0.3c0.5-0.1,0.9-0.2,1.4-0.3c0.9-0.3,1.7-0.7,2.5-1.1c0.9-0.5,1.8-1.1,2.6-1.9
			c0.6-0.6,1.1-1.2,1.6-1.8c0.8-0.9,1.3-2,1.8-3.1c0.2-0.5,0.4-1,0.5-1.6c0.2-0.5,0.3-1,0.4-1.5c0-0.2,0-0.3,0.1-0.5
			C44.5,6.1,42.2,9.4,36.8,9.4z"/>
		<path class="st0" d="M85.8,6.8C86,6.2,86.2,5.6,86.3,5c0.1-0.5,0.2-1,0.3-1.6c0.1-0.5,0.1-1,0.1-1.5c0,0-0.1,0-0.1,0
			c-1.5,6.7-9,7-9.1,7L46,9c0,0.3,0,0.6,0,0.9c0,0.5,0.1,1,0.1,1.4c0.2,1,0.7,1.9,1.4,2.6c1.1,1.1,2.5,1.7,4,1.7c4.4,0,8.7,0,13.1,0
			c0.1,0,0.2,0,0.4,0c-0.1,0.1-0.1,0.1-0.2,0.2c-0.3,0.2-0.7,0.5-1,0.7c-1.1,0.8-2.1,1.8-2.9,3c-0.8,1.1-1.5,2.3-2,3.5
			c-0.3,0.8-0.6,1.6-0.9,2.5c-0.2,0.6-0.2,1.2-0.3,1.8c-0.1,0.5-0.2,1.1-0.2,1.6c0,3.5,0,7,0,10.5c0,0.5,0.1,0.9,0.2,1.4
			c0.3,1,0.8,1.9,1.6,2.6c0.6,0.6,1.4,1,2.2,1.2c0.2,0.1,0.5,0.1,0.7,0.2c1.4,0,2.7,0,4.1,0c0.1,0,0.1-0.1,0.2-0.1
			c0.4-0.1,0.8-0.2,1.1-0.3c2-0.8,3.4-2.8,3.4-5c0-7.8,0-15.7,0-23.5c0-0.2,0.1-0.3,0.3-0.3c1,0,2,0,3,0c0.3,0,0.7,0,1-0.1
			c0.5-0.1,1.1-0.2,1.6-0.4c0.6-0.2,1.3-0.4,1.9-0.7c1.1-0.5,2-1.1,2.9-1.9c0.9-0.8,1.7-1.7,2.4-2.7C84.9,8.9,85.4,7.9,85.8,6.8z"/>
		<path class="st0" d="M81.3,7.2c2.3-1.1,3.8-2.8,4.4-5.2c-11.5,0-23,0-34.5,0c-0.3,0-0.7,0-1,0.1c-0.8,0.2-1.6,0.6-2.3,1.2
			c-1.2,1.1-1.8,2.5-1.9,4.2c0,0.2,0,0.5,0,0.7h31.5C77.5,8.1,79.3,8,81.3,7.2z"/>
		<path class="st0" d="M94.4,35.8l16.6,0c3.9-0.1,5.8-2.4,5.8-6.6c0-1.9-0.5-3.4-1.6-4.4c-1.8-1.7-4.4-1.5-4.4-1.5l-11.2,0
			c-3.1,0-5.5-0.9-7.1-2.6c-1.4-1.5-2-3.4-1.9-5.6c0.4-6,6.5-6.2,6.6-6.2l20.1,0c5.2-0.1,7.5-5.9,7.8-6.8c-10,0-19.9,0-29.9,0
			c-0.4,0-0.7,0-1.1,0.1c-0.5,0.1-1,0.3-1.6,0.4c-0.8,0.2-1.6,0.6-2.4,1c-1.1,0.6-2,1.4-2.8,2.3c-0.9,1-1.6,2.1-2.2,3.3
			c-0.3,0.7-0.6,1.4-0.7,2.2c-0.1,0.5-0.3,1.1-0.3,1.6c-0.1,1.3-0.1,2.6,0.3,3.9c0.2,0.5,0.3,1.1,0.5,1.6c0.4,1.1,1,2.1,1.7,3
			c0.7,0.9,1.5,1.7,2.4,2.3c1.3,0.9,2.7,1.6,4.2,2c0.8,0.2,11.7,0.3,16.4,0.3c0.3,0,0.7,0.1,1,0.2c1,0.4,1.4,1.4,1.2,2.3
			c-0.2,1-1,1.7-2.1,1.6c-3.7,0-7.4,0-11.2,0c-1.4,0-2.7,0-4,0.4c-0.8,0.2-1.6,0.5-2.4,0.8c-1.1,0.5-2.1,1.1-3.1,1.9
			c-1.5,1.2-2.7,2.7-3.5,4.4c-0.3,0.7-0.6,1.5-0.9,2.2C89.1,35.4,94.2,35.8,94.4,35.8z"/>
		<path class="st0" d="M125.1,28.7c-0.2-0.7-0.4-1.3-0.7-1.9c-0.6-1.3-1.3-2.4-2.3-3.4c-0.9-0.9-1.9-1.7-3-2.2
			c-0.7-0.3-1.4-0.6-2.1-0.8c-0.5-0.2-0.9-0.2-1.4-0.3c-0.6-0.1-1.2-0.2-1.8-0.2c-4.6,0-9.2,0-13.8,0c-0.2,0-0.5,0-0.7-0.1
			c-1.2-0.4-1.7-1.7-1.2-2.9c0.4-0.8,1.1-1.1,2-1.1c2,0,4,0,6.1,0c2.3,0,4.6,0,7-0.1c0.8,0,1.5-0.2,2.3-0.3c0.8-0.2,1.7-0.5,2.5-0.9
			c1.5-0.7,2.8-1.6,3.9-2.8c1-1,1.9-2.2,2.5-3.5c0.3-0.7,0.6-1.4,0.8-2c0.2-0.5,0.2-1,0.3-1.5c0.1-0.4,0.1-0.7,0.2-1.1
			C125,4.2,124.6,5,124,5.8c-1.8,2.5-4.1,3.8-6.7,3.8H97.2c-0.2,0-5.4,0.2-5.7,5.4c-0.1,2,0.5,3.7,1.7,5c1.4,1.5,3.7,2.3,6.5,2.3
			h11.2c0.1,0,3-0.2,5,1.7c1.3,1.2,1.9,2.9,1.9,5.1c0,6-3.6,7.3-6.7,7.5l-16.7,0c-0.1,0-5.7-0.4-10.1,4.9c0,0.2-0.1,0.4-0.1,0.6
			c-0.1,0.6-0.1,1.1-0.1,1.7c0.2,0,0.2,0,0.3,0c0.6,0,1.2,0,1.8,0c8.3,0,16.7,0,25,0c1.5,0,2.9,0.1,4.4-0.2c0.4-0.1,0.8-0.1,1.2-0.2
			c0.6-0.2,1.2-0.4,1.8-0.7c1.2-0.5,2.2-1.3,3.2-2.2c1.1-1,1.9-2.2,2.5-3.6c0.3-0.6,0.5-1.3,0.7-2c0.1-0.4,0.2-0.8,0.2-1.2
			c0.1-0.5,0.2-1.1,0.2-1.6c0-0.5,0-0.9-0.1-1.4C125.3,30.1,125.2,29.4,125.1,28.7z"/>
	</g>
</g>
</svg>
